<mxfile host="app.diagrams.net" modified="2020-09-19T15:49:26.758Z" agent="5.0 (Macintosh; Intel Mac OS X 10_15_6) AppleWebKit/605.1.15 (KHTML, like Gecko) Version/13.1.2 Safari/605.1.15" etag="PyTT02cdTdZFYH2RKvj9" version="13.7.3" type="github">
  <diagram id="R2lEEEUBdFMjLlhIrx00" name="Page-1">
    <mxGraphModel dx="1426" dy="819" grid="1" gridSize="10" guides="1" tooltips="1" connect="1" arrows="1" fold="1" page="1" pageScale="1" pageWidth="850" pageHeight="1100" math="0" shadow="0" extFonts="Permanent Marker^https://fonts.googleapis.com/css?family=Permanent+Marker">
      <root>
        <mxCell id="0" />
        <mxCell id="1" parent="0" />
        <mxCell id="051rDO9els9nR794Je7s-1" value="AUTHOR" style="whiteSpace=wrap;html=1;align=center;rounded=0;glass=0;sketch=0;gradientColor=none;fontSize=18;" vertex="1" parent="1">
          <mxGeometry x="120" y="110" width="100" height="40" as="geometry" />
        </mxCell>
        <mxCell id="051rDO9els9nR794Je7s-3" value="PAPER" style="whiteSpace=wrap;html=1;align=center;rounded=0;glass=0;sketch=0;gradientColor=none;fontSize=18;" vertex="1" parent="1">
          <mxGeometry x="120" y="360" width="100" height="40" as="geometry" />
        </mxCell>
        <mxCell id="051rDO9els9nR794Je7s-5" value="Email_id" style="ellipse;whiteSpace=wrap;html=1;align=center;rounded=0;glass=0;sketch=0;gradientColor=none;fontSize=18;" vertex="1" parent="1">
          <mxGeometry x="70" y="50" width="100" height="40" as="geometry" />
        </mxCell>
      </root>
    </mxGraphModel>
  </diagram>
</mxfile>
